<svg width="48" height="48" viewBox="0 0 48 48" fill="none" xmlns="http://www.w3.org/2000/svg">
<rect width="48" height="48" rx="24" fill="#CC703C"/>
<path fill-rule="evenodd" clip-rule="evenodd" d="M35.8726 10L35.7023 10.4105L35.1419 11.724L34.7699 12.5711C31.9454 18.9195 29.7479 21.9325 27.4123 21.9325C26.0663 21.9325 25.2696 21.5801 24.2382 20.7528L23.9405 20.5072C23.1985 19.8854 22.886 19.7325 22.1722 19.7325C21.8001 19.7325 21.1344 20.1653 20.292 21.1755C19.4184 22.223 18.4604 23.7705 17.4309 25.8088L17.335 25.9996L27.3556 26L26.1079 28.35H16.7505V38H14V10H35.8726ZM31.9736 12.3508L16.7504 12.35V21.6816C18.5743 18.8095 20.3075 17.3675 22.1722 17.3675C23.6219 17.3675 24.4761 17.7381 25.5538 18.6005L25.8613 18.8539C26.5541 19.4344 26.8211 19.5675 27.4123 19.5675C28.0661 19.5675 29.7974 17.0731 31.9736 12.3508Z" fill="white"/>
</svg>
