<svg width="28" height="28" viewBox="0 0 28 28" fill="none" xmlns="http://www.w3.org/2000/svg">
<rect opacity="0.1" width="28" height="28" rx="6" fill="white"/>
<g opacity="0.8">
<path d="M14 7.5C14 9.27401 15.3198 10.7398 17.0311 10.9689C17.2602 12.6802 18.726 14 20.5 14C20.6697 14 20.8366 13.9879 20.9999 13.9646C21 13.9764 21 13.9882 21 14C21 17.866 17.866 21 14 21C10.134 21 7 17.866 7 14C7 10.134 10.134 7 14 7C14.0118 7 14.0236 7.00003 14.0354 7.00009C14.0121 7.16336 14 7.33027 14 7.5Z" stroke="white"/>
<path d="M13 12C13 12.5523 12.5523 13 12 13C11.4477 13 11 12.5523 11 12C11 11.4477 11.4477 11 12 11C12.5523 11 13 11.4477 13 12Z" stroke="white"/>
<path d="M12.5 16C12.5 16.5523 12.0523 17 11.5 17C10.9477 17 10.5 16.5523 10.5 16C10.5 15.4477 10.9477 15 11.5 15C12.0523 15 12.5 15.4477 12.5 16Z" stroke="white"/>
<path d="M16.5 16.5C16.5 17.0523 16.0523 17.5 15.5 17.5C14.9477 17.5 14.5 17.0523 14.5 16.5C14.5 15.9477 14.9477 15.5 15.5 15.5C16.0523 15.5 16.5 15.9477 16.5 16.5Z" stroke="white"/>
</g>
</svg>
