<svg width="512" height="513" viewBox="0 0 512 513" fill="none" xmlns="http://www.w3.org/2000/svg">
<path d="M17.9531 494.468C12.0822 488.334 7.58033 481.068 4.68439 473.091C1.78844 465.114 0.577407 456.636 1.13027 448.186C1.68313 439.735 3.99989 431.468 7.92258 423.965C11.8453 416.435 17.2686 409.827 23.8766 404.536C43.2795 390.53 57.7329 389.872 74.3451 385.896C102.567 379.078 126.841 357.779 122.444 326.556C115.204 275.35 51.2828 296.043 51.2828 256.369C51.2828 216.694 115.099 237.387 122.444 186.234C126.841 155.247 102.567 133.896 74.3451 126.893C57.7329 122.918 43.2795 122.207 23.9293 108.201C17.3213 102.91 11.8716 96.2753 7.94891 88.7721C4.02622 81.2164 1.70946 72.9761 1.1566 64.4988C0.603734 56.0479 1.81477 47.5444 4.71071 39.5674C7.60666 31.5903 12.1349 24.3241 18.0057 18.19C24.1399 12.3191 31.4061 7.79091 39.3568 4.89497C47.3075 1.99902 55.811 0.787986 64.2619 1.34085C72.7128 1.89371 80.9531 4.21047 88.4826 8.13316C95.9857 12.0559 102.62 17.5055 107.912 24.1135C121.918 43.5164 122.628 57.9961 126.604 74.6083C133.422 102.857 154.721 127.13 185.918 122.734C237.045 115.494 216.404 51.5197 256.026 51.5197C295.648 51.5197 275.008 115.415 326.187 122.734C357.148 127.13 378.446 102.857 385.502 74.6083C389.477 57.9961 390.135 43.5164 404.115 24.1135C409.406 17.5055 416.041 12.0559 423.544 8.13316C431.047 4.21047 439.313 1.89371 447.764 1.34085C456.215 0.787986 464.693 1.99902 472.67 4.89497C480.62 7.79091 487.913 12.3191 494.021 18.19C499.891 24.2978 504.42 31.5903 507.316 39.5674C510.212 47.5444 511.423 56.0216 510.87 64.4988C510.317 72.9497 508 81.2163 504.077 88.7458C500.155 96.2753 494.705 102.883 488.097 108.175C468.694 122.181 454.241 122.892 437.681 126.867C409.38 133.633 385.133 154.984 389.53 186.208C396.769 237.361 460.691 216.641 460.691 256.342C460.691 296.043 396.822 275.324 389.53 326.529C385.133 357.516 409.406 378.814 437.681 385.58C454.214 389.608 468.694 390.267 488.097 404.272C494.705 409.564 500.155 416.199 504.077 423.702C508 431.231 510.317 439.471 510.87 447.949C511.423 456.399 510.212 464.903 507.316 472.88C504.42 480.857 499.891 488.123 494.021 494.257C487.913 500.128 480.62 504.657 472.67 507.552C464.693 510.448 456.215 511.659 447.764 511.107C439.313 510.554 431.047 508.237 423.544 504.314C416.041 500.392 409.406 494.942 404.115 488.308C390.109 468.905 389.477 454.425 385.502 437.813C378.683 409.564 357.384 385.291 326.187 389.687C275.008 396.927 295.701 460.901 256.026 460.901C216.352 460.901 237.045 397.006 185.918 389.687C154.958 385.291 133.659 409.564 126.604 437.865C122.628 454.425 121.918 468.905 107.912 488.308C102.62 494.942 96.012 500.392 88.4826 504.314C80.9794 508.237 72.7128 510.554 64.2619 511.107C55.811 511.659 47.3338 510.448 39.3568 507.552C31.3798 504.657 24.1136 500.128 18.0057 494.257" fill="#D8F9C0"/>
</svg>
