<svg width="329" height="329" viewBox="0 0 329 329" fill="none" xmlns="http://www.w3.org/2000/svg">
<g clip-path="url(#clip0_7097_1628)">
<path d="M164.5 0C73.7842 0 0 73.7843 0 164.5C0 255.216 73.7842 329.001 164.5 329.001C255.216 329.001 329 255.216 329 164.5C329 73.7843 255.216 0 164.5 0ZM164.5 301.851C88.7453 301.851 27.1491 240.255 27.1491 164.5C27.1491 88.7455 88.7453 27.1491 164.5 27.1491C240.255 27.1491 301.851 88.7455 301.851 164.5C301.851 240.255 240.255 301.851 164.5 301.851Z" fill="#133348"/>
<path d="M164.5 308.438C243.994 308.438 308.438 243.994 308.438 164.5C308.438 85.0055 243.994 20.5625 164.5 20.5625C85.0055 20.5625 20.5625 85.0055 20.5625 164.5C20.5625 243.994 85.0055 308.438 164.5 308.438Z" fill="white"/>
<path d="M164.5 294.115C236.084 294.115 294.115 236.084 294.115 164.5C294.115 92.9154 236.084 34.8848 164.5 34.8848C92.9156 34.8848 34.885 92.9154 34.885 164.5C34.885 236.084 92.9156 294.115 164.5 294.115Z" fill="#133348"/>
<path d="M229.956 148.388C232.698 131.104 218.754 121.811 199.701 115.61L205.883 92.1913L190.795 88.6456L184.77 111.446C180.805 110.506 176.736 109.632 172.676 108.758L178.745 85.8089L163.656 82.2549L157.474 105.665C154.191 104.956 150.96 104.264 147.834 103.521L147.852 103.447L127.035 98.5408L123.019 113.763C123.019 113.763 134.222 116.187 133.986 116.336C140.098 117.779 141.198 121.597 141.015 124.631L133.977 151.307C134.396 151.406 134.938 151.554 135.549 151.777L133.951 151.406L124.084 188.777C123.333 190.525 121.438 193.156 117.16 192.158C117.317 192.364 106.193 189.577 106.193 189.577L98.7009 205.888L118.347 210.514C121.997 211.379 125.577 212.286 129.096 213.136L122.853 236.818L137.933 240.364L144.115 216.946C148.236 217.993 152.235 218.966 156.147 219.889L149.982 243.209L165.071 246.755L171.314 223.122C197.055 227.723 216.405 225.868 224.551 203.884C231.118 186.188 224.228 175.971 210.685 169.316C220.552 167.172 227.974 161.046 229.956 148.388V148.388ZM195.466 194.055C190.812 211.759 159.247 202.185 149.013 199.786L157.308 168.409C167.542 170.825 200.347 175.6 195.466 194.055ZM200.137 148.132C195.885 164.237 169.62 156.049 161.107 154.045L168.616 125.596C177.129 127.6 204.573 131.335 200.137 148.132Z" fill="white"/>
</g>
<defs>
<clipPath id="clip0_7097_1628">
<rect width="329" height="329" fill="white"/>
</clipPath>
</defs>
</svg>
