<svg width="319" height="319" viewBox="0 0 319 319" fill="none" xmlns="http://www.w3.org/2000/svg">
<path d="M159.5 319C247.589 319 319 247.589 319 159.5C319 71.4106 247.589 0 159.5 0C71.4106 0 0 71.4106 0 159.5C0 247.589 71.4106 319 159.5 319Z" fill="#0C1013"/>
<path fill-rule="evenodd" clip-rule="evenodd" d="M159.5 285.106C228.87 285.106 285.106 228.87 285.106 159.5C285.106 90.1296 228.87 33.8937 159.5 33.8937C90.1296 33.8937 33.8937 90.1296 33.8937 159.5C33.8937 228.87 90.1296 285.106 159.5 285.106ZM159.5 299.062C236.578 299.062 299.062 236.578 299.062 159.5C299.062 82.4218 236.578 19.9375 159.5 19.9375C82.4218 19.9375 19.9375 82.4218 19.9375 159.5C19.9375 236.578 82.4218 299.062 159.5 299.062Z" fill="#FC6521"/>
<path d="M206.274 111.834C199.174 95.3412 182.819 91.8439 162.788 95.2548L156.364 69.7812L141.192 73.7966L147.532 99.1838C143.559 100.22 139.46 101.083 135.403 102.249L129.064 76.9916L113.892 81.0069L120.316 106.48C117.061 107.43 89.7188 114.597 89.7188 114.597L93.9026 131.177C93.9026 131.177 105.059 127.982 104.933 128.241C111.103 126.6 114.019 129.752 115.371 132.731L133.036 202.546C133.247 204.575 132.909 208.029 128.641 209.195C128.895 209.325 117.611 212.088 117.611 212.088L119.259 231.43C119.259 231.43 146.348 224.35 149.898 223.443L156.406 249.219L171.578 245.203L165.07 219.255C169.254 218.262 173.311 217.226 177.241 216.189L183.707 242.008L198.878 237.993L192.37 212.26C215.74 206.475 232.222 191.407 228.841 168.394C226.686 154.535 211.852 143.136 199.512 141.841C207.119 134.976 210.965 124.96 206.274 111.834ZM198.963 172.582C201.963 195.379 170.986 198.185 160.717 200.905L151.8 166.797C162.111 164.077 193.892 152.506 198.963 172.582ZM180.284 126.168C183.495 146.418 156.956 148.792 148.419 151.038L140.305 120.081C148.884 117.879 173.775 107.387 180.284 126.168Z" fill="white"/>
</svg>
