<?xml version="1.0" encoding="UTF-8"?>
<!DOCTYPE svg PUBLIC "-//W3C//DTD SVG 1.1//EN" "http://www.w3.org/Graphics/SVG/1.1/DTD/svg11.dtd">
<svg xmlns="http://www.w3.org/2000/svg" version="1.1" width="640px" height="640px" style="shape-rendering:geometricPrecision; text-rendering:geometricPrecision; image-rendering:optimizeQuality; fill-rule:evenodd; clip-rule:evenodd" xmlns:xlink="http://www.w3.org/1999/xlink">
<g><path style="opacity:0.996" fill="#ff0300" d="M 301.5,-0.5 C 313.5,-0.5 325.5,-0.5 337.5,-0.5C 433.204,7.43177 511.37,48.4318 572,122.5C 602.458,162.427 622.958,207.094 633.5,256.5C 635.185,267.966 636.852,279.299 638.5,290.5C 638.187,294.042 638.521,297.375 639.5,300.5C 639.5,312.833 639.5,325.167 639.5,337.5C 638.167,337.833 638.167,338.167 639.5,338.5C 639.5,338.833 639.5,339.167 639.5,339.5C 635.374,390.88 620.374,438.88 594.5,483.5C 588.533,492.477 582.533,501.477 576.5,510.5C 516.202,587.993 436.869,630.993 338.5,639.5C 326.5,639.5 314.5,639.5 302.5,639.5C 190.799,630.205 104.966,578.538 45,484.5C 18.2199,438.665 3.05321,389.331 -0.5,336.5C -0.5,324.833 -0.5,313.167 -0.5,301.5C 0.748676,287.192 2.74868,272.859 5.5,258.5C 12.0762,225.103 23.4096,193.436 39.5,163.5C 98.8486,64.7921 186.182,10.1255 301.5,-0.5 Z M 578.5,256.5 C 536.969,268.532 510.802,295.532 500,337.5C 499.042,342.123 498.375,346.79 498,351.5C 497.5,386.498 497.333,421.498 497.5,456.5C 486.86,446.194 476.193,435.861 465.5,425.5C 472.714,381.109 459.047,344.609 424.5,316C 410.172,306.167 395.505,296.834 380.5,288C 367.526,277.42 362.86,264.087 366.5,248C 361.147,246.669 355.814,245.503 350.5,244.5C 374.56,207.588 403.227,174.422 436.5,145C 409.879,152.768 387.545,167.268 369.5,188.5C 374.683,178.474 380.516,168.807 387,159.5C 395.405,149.273 403.571,138.939 411.5,128.5C 386.642,144.69 366.975,165.69 352.5,191.5C 352.167,191.5 351.833,191.5 351.5,191.5C 354.507,179.143 357.341,166.809 360,154.5C 345.283,180.489 335.449,208.156 330.5,237.5C 323.851,233.193 317.184,228.859 310.5,224.5C 309.167,225.5 307.833,226.5 306.5,227.5C 312.373,237.785 316.039,248.785 317.5,260.5C 317.054,265.844 315.721,270.844 313.5,275.5C 295.833,258.5 278.5,241.167 261.5,223.5C 261.667,207.497 261.5,191.497 261,175.5C 259.257,170.09 255.757,166.256 250.5,164C 234.17,163.5 217.837,163.333 201.5,163.5C 184.368,146.868 167.368,130.035 150.5,113C 219.041,59.4196 296.041,41.7529 381.5,60C 477.192,86.0845 541.358,145.918 574,239.5C 575.66,245.142 577.16,250.809 578.5,256.5 Z M 124.5,162.5 C 117.687,163.491 110.687,163.825 103.5,163.5C 106.476,159.518 109.476,155.518 112.5,151.5C 116.52,155.189 120.52,158.855 124.5,162.5 Z M 58.5,262.5 C 63.0836,263.277 67.7503,263.777 72.5,264C 76.1655,265.668 78.3322,268.501 79,272.5C 79.8318,326.668 79.6651,380.668 78.5,434.5C 53.3063,379.08 46.6396,321.747 58.5,262.5 Z M 224.5,262.5 C 240.14,277.473 255.473,292.806 270.5,308.5C 221.405,340.605 205.238,384.938 222,441.5C 242.236,484.895 276.403,508.395 324.5,512C 351.304,514.652 377.304,511.319 402.5,502C 416.98,495.673 429.647,486.84 440.5,475.5C 456.509,491.51 472.843,507.176 489.5,522.5C 490.521,523.002 490.688,523.668 490,524.5C 421.04,579.357 343.54,597.524 257.5,579C 209.694,567.277 168.361,544.443 133.5,510.5C 147.171,510.667 160.837,510.5 174.5,510C 177.937,508.895 180.437,506.728 182,503.5C 183.325,426.224 183.991,348.89 184,271.5C 185.167,267.667 187.667,265.167 191.5,264C 202.576,263.811 213.576,263.311 224.5,262.5 Z"/></g>
<g><path style="opacity:0.976" fill="#accc12" d="M 411.5,128.5 C 403.571,138.939 395.405,149.273 387,159.5C 380.516,168.807 374.683,178.474 369.5,188.5C 387.545,167.268 409.879,152.768 436.5,145C 403.227,174.422 374.56,207.588 350.5,244.5C 347.252,244.238 344.252,244.238 341.5,244.5C 340.833,244.167 340.167,243.833 339.5,243.5C 338.833,243.167 338.167,242.833 337.5,242.5C 336.395,241.4 335.062,240.733 333.5,240.5C 332.694,239.272 331.694,238.272 330.5,237.5C 335.449,208.156 345.283,180.489 360,154.5C 357.341,166.809 354.507,179.143 351.5,191.5C 350.471,195.364 350.804,195.364 352.5,191.5C 366.975,165.69 386.642,144.69 411.5,128.5 Z"/></g>
<g><path style="opacity:0.971" fill="#7e4798" d="M 39.5,163.5 C 23.4096,193.436 12.0762,225.103 5.5,258.5C 3.29181,257.106 1.79181,255.106 1,252.5C 0.824739,247.981 0.324739,243.647 -0.5,239.5C -0.5,239.167 -0.5,238.833 -0.5,238.5C 0.833333,237.5 0.833333,236.5 -0.5,235.5C -0.5,235.167 -0.5,234.833 -0.5,234.5C 0.833333,233.5 0.833333,232.5 -0.5,231.5C -0.5,231.167 -0.5,230.833 -0.5,230.5C 0.833333,229.5 0.833333,228.5 -0.5,227.5C -0.5,227.167 -0.5,226.833 -0.5,226.5C 0.833333,220.833 0.833333,215.167 -0.5,209.5C -0.5,209.167 -0.5,208.833 -0.5,208.5C 0.833333,207.5 0.833333,206.5 -0.5,205.5C -0.5,205.167 -0.5,204.833 -0.5,204.5C 0.833333,203.5 0.833333,202.5 -0.5,201.5C -0.5,201.167 -0.5,200.833 -0.5,200.5C 0.833333,199.5 0.833333,198.5 -0.5,197.5C -0.5,197.167 -0.5,196.833 -0.5,196.5C 0.329022,189.011 0.829022,181.344 1,173.5C 2.92678,168.572 6.42678,165.406 11.5,164C 20.8274,163.5 30.1607,163.334 39.5,163.5 Z"/></g>
<g><path style="opacity:0.993" fill="#7d4698" d="M 124.5,162.5 C 158.14,195.473 191.473,228.806 224.5,262.5C 213.576,263.311 202.576,263.811 191.5,264C 187.667,265.167 185.167,267.667 184,271.5C 183.991,348.89 183.325,426.224 182,503.5C 180.437,506.728 177.937,508.895 174.5,510C 160.837,510.5 147.171,510.667 133.5,510.5C 110.553,488.546 92.2196,463.212 78.5,434.5C 79.6651,380.668 79.8318,326.668 79,272.5C 78.3322,268.501 76.1655,265.668 72.5,264C 67.7503,263.777 63.0836,263.277 58.5,262.5C 66.7964,226.255 81.7964,193.255 103.5,163.5C 110.687,163.825 117.687,163.491 124.5,162.5 Z"/></g>
<g><path style="opacity:0.974" fill="#7d4698" d="M 201.5,163.5 C 217.837,163.333 234.17,163.5 250.5,164C 255.757,166.256 259.257,170.09 261,175.5C 261.5,191.497 261.667,207.497 261.5,223.5C 241.167,203.833 221.167,183.833 201.5,163.5 Z"/></g>
<g><path style="opacity:1" fill="#fcd9cd" d="M 351.5,191.5 C 351.833,191.5 352.167,191.5 352.5,191.5C 350.804,195.364 350.471,195.364 351.5,191.5 Z"/></g>
<g><path style="opacity:0.978" fill="#110f10" d="M 330.5,237.5 C 331.694,238.272 332.694,239.272 333.5,240.5C 327.089,238.281 320.756,236.114 314.5,234C 324.547,248.39 326.88,263.89 321.5,280.5C 320.662,280.842 320.328,281.508 320.5,282.5C 317.833,280.5 315.5,278.167 313.5,275.5C 315.721,270.844 317.054,265.844 317.5,260.5C 316.039,248.785 312.373,237.785 306.5,227.5C 307.833,226.5 309.167,225.5 310.5,224.5C 317.184,228.859 323.851,233.193 330.5,237.5 Z"/></g>
<g><path style="opacity:1" fill="#fefbdd" d="M 333.5,240.5 C 333.75,241.922 334.583,242.922 336,243.5C 336.667,261.167 336.667,278.833 336,296.5C 333.907,293.956 332.907,290.956 333,287.5C 332,288.5 331,289.5 330,290.5C 326.558,287.568 323.725,284.235 321.5,280.5C 326.88,263.89 324.547,248.39 314.5,234C 320.756,236.114 327.089,238.281 333.5,240.5 Z"/></g>
<g><path style="opacity:1" fill="#f1e7e5" d="M 333.5,240.5 C 335.062,240.733 336.395,241.4 337.5,242.5C 337.5,261.5 337.5,280.5 337.5,299.5C 331.5,294.167 325.833,288.5 320.5,282.5C 320.328,281.508 320.662,280.842 321.5,280.5C 323.725,284.235 326.558,287.568 330,290.5C 331,289.5 332,288.5 333,287.5C 332.907,290.956 333.907,293.956 336,296.5C 336.667,278.833 336.667,261.167 336,243.5C 334.583,242.922 333.75,241.922 333.5,240.5 Z"/></g>
<g><path style="opacity:1" fill="#6a5569" d="M 337.5,242.5 C 338.167,242.833 338.833,243.167 339.5,243.5C 339.5,262.5 339.5,281.5 339.5,300.5C 338.508,300.672 337.842,300.338 337.5,299.5C 337.5,280.5 337.5,261.5 337.5,242.5 Z"/></g>
<g><path style="opacity:0.986" fill="#090708" d="M 341.5,244.5 C 344.252,244.238 347.252,244.238 350.5,244.5C 355.814,245.503 361.147,246.669 366.5,248C 362.86,264.087 367.526,277.42 380.5,288C 395.505,296.834 410.172,306.167 424.5,316C 459.047,344.609 472.714,381.109 465.5,425.5C 462.167,422.833 459.167,419.833 456.5,416.5C 459.898,379.507 447.565,349.007 419.5,325C 405.316,313.823 390.316,303.823 374.5,295C 366.697,288.204 360.864,280.037 357,270.5C 355.33,264.322 355.164,258.155 356.5,252C 353.264,250.214 349.93,248.714 346.5,247.5C 345.232,245.953 343.565,244.953 341.5,244.5 Z"/></g>
<g><path style="opacity:1" fill="#fefbe3" d="M 339.5,243.5 C 340.167,243.833 340.833,244.167 341.5,244.5C 343.565,244.953 345.232,245.953 346.5,247.5C 346.5,250.833 346.5,254.167 346.5,257.5C 345.408,269.536 346.908,281.203 351,292.5C 355.748,300.999 360.748,309.332 366,317.5C 369.062,322.953 371.562,328.62 373.5,334.5C 363.78,325.112 354.114,315.778 344.5,306.5C 343.338,297.204 342.504,287.871 342,278.5C 341.584,287.174 341.75,295.841 342.5,304.5C 340.738,303.738 339.738,302.404 339.5,300.5C 339.5,281.5 339.5,262.5 339.5,243.5 Z"/></g>
<g><path style="opacity:1" fill="#7d4798" d="M 346.5,247.5 C 349.93,248.714 353.264,250.214 356.5,252C 355.164,258.155 355.33,264.322 357,270.5C 360.864,280.037 366.697,288.204 374.5,295C 390.316,303.823 405.316,313.823 419.5,325C 447.565,349.007 459.898,379.507 456.5,416.5C 431.168,392.168 406.168,367.501 381.5,342.5C 378.447,332.39 374.28,322.723 369,313.5C 364,305.5 359,297.5 354,289.5C 349.89,279.07 347.39,268.403 346.5,257.5C 346.5,254.167 346.5,250.833 346.5,247.5 Z"/></g>
<g><path style="opacity:0.993" fill="#7d4698" d="M 578.5,256.5 C 595.35,329.734 584.183,398.401 545,462.5C 540.065,470.701 534.399,478.368 528,485.5C 517.635,475.967 507.468,466.3 497.5,456.5C 497.333,421.498 497.5,386.498 498,351.5C 498.375,346.79 499.042,342.123 500,337.5C 510.802,295.532 536.969,268.532 578.5,256.5 Z"/></g>
<g><path style="opacity:0.753" fill="#835098" d="M 633.5,256.5 C 635.984,258.12 637.484,260.453 638,263.5C 638.5,272.494 638.666,281.494 638.5,290.5C 636.852,279.299 635.185,267.966 633.5,256.5 Z"/></g>
<g><path style="opacity:1" fill="#0d0b0c" d="M 346.5,257.5 C 347.39,268.403 349.89,279.07 354,289.5C 359,297.5 364,305.5 369,313.5C 374.28,322.723 378.447,332.39 381.5,342.5C 378.5,340.167 375.833,337.5 373.5,334.5C 371.562,328.62 369.062,322.953 366,317.5C 360.748,309.332 355.748,300.999 351,292.5C 346.908,281.203 345.408,269.536 346.5,257.5 Z"/></g>
<g><path style="opacity:1" fill="#645156" d="M 344.5,306.5 C 343.833,305.833 343.167,305.167 342.5,304.5C 341.75,295.841 341.584,287.174 342,278.5C 342.504,287.871 343.338,297.204 344.5,306.5 Z"/></g>
<g><path style="opacity:0.988" fill="#0c0b0b" d="M 270.5,308.5 C 273.167,310.5 275.5,312.833 277.5,315.5C 265.932,324.893 254.765,334.893 244,345.5C 230.507,363.151 224.34,383.151 225.5,405.5C 225.799,428.233 233.299,448.233 248,465.5C 259.434,478.964 273.267,489.13 289.5,496C 292.43,497.318 295.43,497.985 298.5,498C 290.848,494.355 284.348,489.189 279,482.5C 263.101,463.892 252.434,442.559 247,418.5C 245.362,406.05 247.695,394.384 254,383.5C 265.12,363.879 280.62,348.879 300.5,338.5C 301.833,339.167 302.833,340.167 303.5,341.5C 285.047,351.115 270.214,364.781 259,382.5C 251.968,393.92 249.301,406.253 251,419.5C 258.508,447.651 272.674,471.817 293.5,492C 302.034,497.732 311.367,501.066 321.5,502C 286.297,487.097 270.464,460.597 274,422.5C 280.922,401.91 294.422,387.41 314.5,379C 319.44,374.568 323.773,369.735 327.5,364.5C 328.167,364.5 328.5,364.833 328.5,365.5C 325.13,371.379 320.797,376.545 315.5,381C 296.98,390.846 284.147,405.679 277,425.5C 276.052,441.992 280.385,456.992 290,470.5C 298.603,484.111 310.437,493.611 325.5,499C 329.446,500.324 333.446,500.991 337.5,501C 330.614,497.114 325.447,491.614 322,484.5C 313.179,466.266 312.179,447.6 319,428.5C 325.083,420.598 330.917,412.598 336.5,404.5C 337.45,394.552 337.784,384.552 337.5,374.5C 338.167,374.5 338.5,374.833 338.5,375.5C 338.333,415.835 338.5,456.168 339,496.5C 339.717,495.956 340.217,495.289 340.5,494.5C 341.038,492.883 341.371,491.216 341.5,489.5C 349.354,462.116 349.354,434.783 341.5,407.5C 340.761,403.985 340.761,400.652 341.5,397.5C 343.815,408.284 346.649,418.95 350,429.5C 353.266,448.203 352.932,466.87 349,485.5C 347.226,491.553 344.059,496.72 339.5,501C 342.776,499.763 345.609,497.597 348,494.5C 355.401,484.02 359.735,472.354 361,459.5C 365.425,437.057 363.925,415.057 356.5,393.5C 358.5,394.833 360.167,396.5 361.5,398.5C 368.124,419.82 369.291,441.487 365,463.5C 363.293,470.593 361.627,477.593 360,484.5C 365.039,473.346 368.373,461.679 370,449.5C 372.621,436.96 374.121,424.294 374.5,411.5C 375.833,412.167 376.833,413.167 377.5,414.5C 377.816,423.884 377.316,433.218 376,442.5C 372.955,456.015 369.621,469.348 366,482.5C 370.054,477.058 373.054,471.058 375,464.5C 378.145,449.297 380.312,433.964 381.5,418.5C 385.215,420.882 388.215,423.882 390.5,427.5C 389.497,444.683 385.997,461.35 380,477.5C 375.062,488.435 367.895,497.601 358.5,505C 381.092,502.04 401.759,494.04 420.5,481C 425.336,477.33 429.669,473.164 433.5,468.5C 436.167,470.5 438.5,472.833 440.5,475.5C 429.647,486.84 416.98,495.673 402.5,502C 377.304,511.319 351.304,514.652 324.5,512C 276.403,508.395 242.236,484.895 222,441.5C 205.238,384.938 221.405,340.605 270.5,308.5 Z"/></g>
<g><path style="opacity:1" fill="#fefbde" d="M 277.5,315.5 C 285.5,322.833 293.167,330.5 300.5,338.5C 280.62,348.879 265.12,363.879 254,383.5C 247.695,394.384 245.362,406.05 247,418.5C 252.434,442.559 263.101,463.892 279,482.5C 284.348,489.189 290.848,494.355 298.5,498C 295.43,497.985 292.43,497.318 289.5,496C 273.267,489.13 259.434,478.964 248,465.5C 233.299,448.233 225.799,428.233 225.5,405.5C 224.34,383.151 230.507,363.151 244,345.5C 254.765,334.893 265.932,324.893 277.5,315.5 Z"/></g>
<g><path style="opacity:1" fill="#fefbdd" d="M 303.5,341.5 C 312.133,348.465 320.133,356.132 327.5,364.5C 323.773,369.735 319.44,374.568 314.5,379C 294.422,387.41 280.922,401.91 274,422.5C 270.464,460.597 286.297,487.097 321.5,502C 311.367,501.066 302.034,497.732 293.5,492C 272.674,471.817 258.508,447.651 251,419.5C 249.301,406.253 251.968,393.92 259,382.5C 270.214,364.781 285.047,351.115 303.5,341.5 Z"/></g>
<g><path style="opacity:1" fill="#fefbdd" d="M 328.5,365.5 C 331.833,368.167 334.833,371.167 337.5,374.5C 337.784,384.552 337.45,394.552 336.5,404.5C 330.917,412.598 325.083,420.598 319,428.5C 312.179,447.6 313.179,466.266 322,484.5C 325.447,491.614 330.614,497.114 337.5,501C 333.446,500.991 329.446,500.324 325.5,499C 310.437,493.611 298.603,484.111 290,470.5C 280.385,456.992 276.052,441.992 277,425.5C 284.147,405.679 296.98,390.846 315.5,381C 320.797,376.545 325.13,371.379 328.5,365.5 Z"/></g>
<g><path style="opacity:1" fill="#a480a1" d="M 338.5,375.5 C 339.167,375.5 339.5,375.833 339.5,376.5C 339.168,416.004 339.501,455.337 340.5,494.5C 340.217,495.289 339.717,495.956 339,496.5C 338.5,456.168 338.333,415.835 338.5,375.5 Z"/></g>
<g><path style="opacity:1" fill="#fefdfb" d="M 339.5,376.5 C 343.167,379.5 346.5,382.833 349.5,386.5C 346.269,384.78 343.436,382.447 341,379.5C 340.212,385.582 340.379,391.582 341.5,397.5C 340.761,400.652 340.761,403.985 341.5,407.5C 340.167,434.833 340.167,462.167 341.5,489.5C 341.371,491.216 341.038,492.883 340.5,494.5C 339.501,455.337 339.168,416.004 339.5,376.5 Z"/></g>
<g><path style="opacity:1" fill="#fcfadf" d="M 349.5,386.5 C 352.167,388.5 354.5,390.833 356.5,393.5C 363.925,415.057 365.425,437.057 361,459.5C 359.735,472.354 355.401,484.02 348,494.5C 345.609,497.597 342.776,499.763 339.5,501C 344.059,496.72 347.226,491.553 349,485.5C 352.932,466.87 353.266,448.203 350,429.5C 346.649,418.95 343.815,408.284 341.5,397.5C 340.379,391.582 340.212,385.582 341,379.5C 343.436,382.447 346.269,384.78 349.5,386.5 Z"/></g>
<g><path style="opacity:1" fill="#fcf9e6" d="M 361.5,398.5 C 366.167,402.5 370.5,406.833 374.5,411.5C 374.121,424.294 372.621,436.96 370,449.5C 368.373,461.679 365.039,473.346 360,484.5C 361.627,477.593 363.293,470.593 365,463.5C 369.291,441.487 368.124,419.82 361.5,398.5 Z"/></g>
<g><path style="opacity:1" fill="#fdfbfb" d="M 336.5,404.5 C 337.83,434.669 337.83,465.003 336.5,495.5C 334.479,494.145 332.812,492.479 331.5,490.5C 333.371,490.859 334.871,491.859 336,493.5C 336.83,465.664 336.664,437.997 335.5,410.5C 335.833,408.5 336.167,406.5 336.5,404.5 Z"/></g>
<g><path style="opacity:1" fill="#fcfadf" d="M 341.5,407.5 C 349.354,434.783 349.354,462.116 341.5,489.5C 340.167,462.167 340.167,434.833 341.5,407.5 Z"/></g>
<g><path style="opacity:1" fill="#fefcde" d="M 335.5,410.5 C 336.664,437.997 336.83,465.664 336,493.5C 334.871,491.859 333.371,490.859 331.5,490.5C 311.661,462.613 312.994,435.946 335.5,410.5 Z"/></g>
<g><path style="opacity:1" fill="#7e4798" d="M 390.5,427.5 C 391.239,427.369 391.906,427.536 392.5,428C 406.062,441.729 419.728,455.229 433.5,468.5C 429.669,473.164 425.336,477.33 420.5,481C 401.759,494.04 381.092,502.04 358.5,505C 367.895,497.601 375.062,488.435 380,477.5C 385.997,461.35 389.497,444.683 390.5,427.5 Z"/></g>
<g><path style="opacity:1" fill="#f2ebdd" d="M 377.5,414.5 C 379.167,415.5 380.5,416.833 381.5,418.5C 380.312,433.964 378.145,449.297 375,464.5C 373.054,471.058 370.054,477.058 366,482.5C 369.621,469.348 372.955,456.015 376,442.5C 377.316,433.218 377.816,423.884 377.5,414.5 Z"/></g>
<g><path style="opacity:0.921" fill="#804b97" d="M 594.5,483.5 C 594.666,490.175 594.5,496.842 594,503.5C 589.749,509.424 583.916,511.758 576.5,510.5C 582.533,501.477 588.533,492.477 594.5,483.5 Z"/></g>
<g><path style="opacity:1" fill="#9e9294" d="M 355.5,490.5 C 356.713,491.497 356.546,492.497 355,493.5C 354.53,492.423 354.697,491.423 355.5,490.5 Z"/></g>
</svg>
